PathFileType	4	(X/Y/Z)	Patient4_TMGait_0pt5_01_right_13.trc.trc
DataRate	CameraRate	NumFrames	NumMarkers	Units	OrigDataRate	OrigDataStartFrame	OrigNumFrames
77.777777777778	77.777777777778	4	33	mm	77.777777777778	124	       141
Frame#	Time	L.ASIS			Sacral			L.Shoulder			Chest			R.Shoulder			Neck			R.ASIS			R.Thigh.Superior			R.Thigh.Lateral			R.Thigh.Inferior			R.Patella			L.Thigh.Superior			L.Thigh.Lateral			L.Thigh.Inferior			L.Patella			L.Shank.Superior			L.Shank.Lateral			L.Shank.Inferior			R.Shank.Superior			R.Shank.Lateral			R.Shank.Inferior			R.Heel			R.Midfoot.Superior			R.Midfoot.Lateral			R.Toe			L.Heel			L.Midfoot.Lateral			L.Midfoot.Superior			L.Toe			L.Elbow			L.Wrist			R.Elbow			R.Wrist			
		X1	Y1	Z1	X2	Y2	Z2	X3	Y3	Z3	X4	Y4	Z4	X5	Y5	Z5	X6	Y6	Z6	X7	Y7	Z7	X8	Y8	Z8	X9	Y9	Z9	X10	Y10	Z10	X11	Y11	Z11	X12	Y12	Z12	X13	Y13	Z13	X14	Y14	Z14	X15	Y15	Z15	X16	Y16	Z16	X17	Y17	Z17	X18	Y18	Z18	X19	Y19	Z19	X20	Y20	Z20	X21	Y21	Z21	X22	Y22	Z22	X23	Y23	Z23	X24	Y24	Z24	X25	Y25	Z25	X26	Y26	Z26	X27	Y27	Z27	X28	Y28	Z28	X29	Y29	Z29	X30	Y30	Z30	X31	Y31	Z31	X32	Y32	Z32	X33	Y33	Z33	

124	18.351428571429	791.688437976207	950.323600566260	307.257236050006	568.450925144565	995.164230670786	448.088246045639	753.356637767940	1426.818743696302	285.836692463292	840.119418311220	1354.546745266606	455.342473288373	739.930870791110	1425.457074777656	622.960405040780	739.811619299950	1486.701237076247	437.494477888339	785.282722458270	931.757672815569	583.102490327424	857.210380684808	754.772064706287	557.037874524625	802.051349229339	633.310121189458	623.302997989558	894.071776421937	594.940255941502	548.042321131486	921.041659557987	509.312410161457	561.140616932862	787.389443359823	721.738514440208	335.676855012666	669.865706845337	632.408157108821	268.732694541798	721.402369091224	537.151452106583	336.751424127962	704.512862396299	469.956970930395	345.818021958135	669.369746628476	406.293070185046	336.610122431683	567.868257871708	303.555956001596	283.588274166734	601.041612813564	188.010379620856	357.526070783395	902.280236009140	419.961133409795	568.847832129644	842.276724474462	307.872273945819	627.686658460426	908.219453865742	220.053055027636	575.652897222263	805.688780849120	41.658199584951	542.407289904944	970.123093042425	108.297961942011	586.636041793027	887.242481251878	37.473642325480	619.271750963404	1091.663129604709	65.217112919136	617.111551953647	457.073040869823	38.701682846975	397.866289163661	531.806894578177	34.791982181410	318.238589560127	615.825052206552	95.065191666794	345.383962744832	743.805093918931	40.164243220668	318.003037050848	797.041664018145	1092.139953022331	132.375979416955	1045.369944415417	1020.967487613022	123.735927883672	581.761419222191	1117.251665405739	714.254721787154	535.998013571080	860.027951297246	719.226063592075	
125	18.364285714286	793.889558723378	949.307562562991	310.009844124590	570.333550275508	993.232246102362	450.984200868790	753.083481906791	1425.683033792371	289.023768134778	840.244554400705	1353.848462176202	458.514789868034	739.459531853458	1424.029255471754	626.078087712956	739.371692397816	1485.454557989917	440.712695122683	787.593949779035	930.443674133767	585.767093989236	860.415470260740	753.463682580324	559.140983304446	804.075727126611	631.710176345518	624.011522542357	896.561655363386	593.834392681227	549.227249882596	922.316422174094	507.331689814579	561.495553785882	788.946051066821	720.345983637639	337.842301378467	670.969397477541	631.247227734331	271.080440583882	722.257775467953	535.610195579195	338.930560264770	705.139207838163	467.769758952693	347.826111322894	668.633893472182	404.405457008603	338.418036179808	565.273008872536	303.598377735955	284.882897919858	596.318518788919	187.197058859653	358.214574075116	902.756902007372	417.428031724134	569.071799235018	841.388814017683	306.029504896622	627.817279884989	905.485843960120	217.477569639716	575.061310833861	799.469529018096	41.557744178084	541.940087738212	965.014675937760	105.529202613645	585.229112856900	880.933694774712	36.815973685822	618.910263319474	1086.048661053081	60.566392244747	616.115191397950	450.522455193706	38.986029727233	397.736928633596	525.352738958737	34.854617691239	318.234602530303	609.527304188461	95.000916166244	345.458092287475	737.425132632775	39.939523139771	317.954433539459	795.703212902709	1090.307995465201	136.130002083171	1043.960841941106	1018.795642635679	126.995077248212	583.478339535326	1114.399084987917	716.543225425683	539.043593822533	856.798236335901	720.352949846612	
126	18.377142857143	796.028456226343	948.483151809209	312.832663218581	572.141552928135	991.532949778659	453.947407964569	752.872046709845	1424.761281081038	292.326146197906	840.456957861669	1353.299103872889	461.766292389846	739.137702727159	1422.735260140822	629.321403012367	739.060879964602	1484.410947935891	444.056976194237	789.943666262292	929.385957867450	588.486677704407	863.754170863385	752.516448022959	561.054760059701	806.516672432294	630.546680072496	624.745180046243	899.234830753373	593.051962437323	550.208541994545	923.824133866408	505.583947900274	561.783940168000	790.880134590161	719.167939770581	340.087026295829	672.632604773585	630.023590745351	273.636516180349	724.017141752303	534.095952505162	341.230964503764	706.730148473204	465.440534167271	349.904766691768	668.661023554036	402.395560413238	340.326262053198	563.220847237069	303.823545621796	286.318319641822	591.889229997918	186.485139638696	358.914813333192	903.325458421189	415.160195771350	569.258262858222	840.557758113197	304.559739984682	628.104318864138	902.479492226179	215.154963648527	574.480334856512	792.676159928435	41.604023207551	541.604593740569	959.298020460972	103.130745047550	583.971866859120	874.081354328860	36.389624523684	618.676146031821	1079.872325513596	56.447334213927	615.220452358439	443.999949529949	39.717988160987	397.564145359631	518.927189072134	35.124754656719	318.217152534528	603.392223321438	94.981617738438	345.477063244545	731.071963797264	39.660842377947	317.888270365409	793.959263861655	1088.497031525453	140.151730303685	1041.963512907764	1015.802058514601	130.444357130643	586.085578652450	1111.210684009140	719.102765068023	543.744427427816	853.112168067816	721.837563743208	
127	18.390000000000	798.023905797374	947.901781468012	315.697263985076	573.847563665187	990.129971683494	456.962628054160	752.735626837755	1424.116638769973	295.717427167139	840.753244849285	1352.940794183633	465.068833241905	738.993609281471	1421.648103544951	632.672766186447	738.892715739581	1483.627925156255	447.502300992133	792.285070162282	928.634781130234	591.252350824711	867.069150347588	751.923633157087	562.802904337429	809.224167685325	629.824123518801	625.581953659025	901.901140909035	592.545134079139	551.047199053185	925.393105570440	504.098345342530	562.085576038307	793.164132027393	718.275186677479	342.407563265802	674.891260230957	628.771131667226	276.368721085783	726.774922776626	532.660919682438	343.604499395953	709.391408343186	463.018484675235	351.965718748082	669.530397457695	400.327489303201	342.269712153411	561.784309460450	304.327934020271	287.864557716068	587.842220581560	185.976440258994	359.588592371911	903.877289377774	413.212948104414	569.468941895825	839.755582288593	303.463892602515	628.568735077827	899.299177768654	213.159937946935	573.974877026366	785.665139100984	41.739005594882	541.401880429524	953.241668927644	101.198383879786	582.957610458991	867.034091172674	36.161030401599	618.572367695507	1073.427657949853	53.073376388298	614.498759704779	437.564380219708	41.101451292247	397.353107319993	512.561475442728	35.722838575643	318.185917919005	597.496275405704	95.047798552516	345.419132401805	724.742537902091	39.331648710941	317.809662270835	791.817157138587	1086.790044325363	144.431749222829	1039.345272806994	1011.993860822286	134.085541983386	589.549412480692	1107.823654048885	721.906830891732	550.070087126570	849.129453840847	723.672361699754	
